<svg width="114" height="73" viewBox="0 0 114 73" fill="none" xmlns="http://www.w3.org/2000/svg">
<g clip-path="url(#clip0_4_2)">
<path d="M72.3891 37.9413C71.0307 38.2456 69.7077 38.8091 68.5022 39.5965C65.3614 41.5978 63.5341 44.4546 64.421 45.9767C65.308 47.4988 68.5731 47.1095 71.7138 45.1082C72.9356 44.3486 74.021 43.3779 74.9032 42.2559C75.3125 41.7138 75.386 41.0383 75.0908 40.5334L73.9386 38.556C73.6454 38.0495 73.0374 37.8086 72.3891 37.9413Z" fill="#D5D6DB"/>
<path d="M64.502 10.9482C63.517 11.169 62.5576 11.5778 61.6833 12.1488C59.4065 13.5996 58.0807 15.6711 58.7233 16.7739C59.3659 17.8767 61.7344 17.5941 64.011 16.1434C64.8969 15.5923 65.6838 14.8881 66.3236 14.0744C66.6201 13.6815 66.6732 13.1922 66.4592 12.8261L65.625 11.3943C65.4127 11.0271 64.9721 10.8521 64.502 10.9482Z" fill="#D5D6DB"/>
<path d="M51.688 12.0787C51.4687 12.0542 51.2349 12.1126 51.0322 12.2421L45.684 15.6503C45.2366 15.9346 45.0576 16.4819 45.2845 16.8731C45.3364 16.9627 45.4075 17.0393 45.4937 17.0983L58.6753 26.1832L76.5088 14.8185L51.688 12.0787Z" fill="#029BC5"/>
<path d="M108.065 10.7941L59.5329 41.3462L30.8201 52.7721L16.177 55.6821L14.566 52.9451L95.4612 2.99855C97.872 1.50365 100.558 0.586055 103.246 0.338955C104.424 0.237055 105.587 0.276255 106.708 0.455055C107.702 0.605755 108.645 0.896454 109.508 1.31855C110.472 1.79675 112.307 1.85195 112.901 2.80475C112.903 2.80325 114.305 7.17765 108.065 10.7941Z" fill="#E1E6E9"/>
<path d="M60.1762 37.3036L39.1809 70.774C38.9187 71.244 39.0744 71.77 39.5283 71.949C39.8068 72.059 40.1477 72.016 40.4341 71.834L45.7781 68.444C46.806 67.791 47.7161 66.963 48.4523 66.009L89.1686 18.1404L60.1762 37.3036Z" fill="#029BC5"/>
<path d="M7.19662 36.1861C6.8464 36.0664 6.42961 36.1285 6.07778 36.3525L1.66029 39.1659C1.05837 39.549 0.818526 40.2854 1.12438 40.8111C1.18266 40.911 1.25836 40.999 1.3491 41.0714L13.7259 50.9838L26.7389 42.8557L7.19662 36.1861Z" fill="#029BC5"/>
<path d="M17.8743 52.771L11.2128 62.1C11.1152 62.234 11.1381 62.403 11.2641 62.476C11.3549 62.529 11.4789 62.519 11.5797 62.452L15.708 59.836C15.74 59.815 15.7691 59.79 15.7931 59.761L25.5266 47.9261L17.8743 52.771Z" fill="#029BC5"/>
<path d="M105.911 0.857256C104.757 0.671856 103.559 0.632256 102.346 0.738856C101.165 2.38996 100.411 4.24466 100.157 6.11806C100.139 6.49436 100.442 6.76526 100.835 6.72306C100.957 6.70986 101.079 6.66695 101.188 6.59815L108.796 1.75386C107.906 1.31526 106.935 1.01346 105.911 0.857256Z" fill="#029BC5"/>
<path d="M89.3322 9.76532L94.2992 6.62842L98.9258 14.4974L93.9588 17.6343L89.3322 9.76532Z" fill="#D5D6DB"/>
<path d="M86.2067 12.8775C85.6082 13.2567 85.3689 13.9855 85.6728 14.5052L86.1651 15.3472C86.489 15.8536 87.2283 15.9427 87.8165 15.546C88.3764 15.1682 88.6018 14.4815 88.332 13.9745L87.8397 13.1325C87.5361 12.6132 86.8053 12.499 86.2067 12.8775Z" fill="#3A556A"/>
<path d="M81.7423 15.65C81.1437 16.0291 80.9045 16.7579 81.2084 17.2777L81.7007 18.1196C82.0245 18.6261 82.7638 18.7152 83.3521 18.3185C83.9119 17.9407 84.1373 17.254 83.8676 16.747L83.3752 15.905C83.0714 15.3859 82.3406 15.2716 81.7423 15.65Z" fill="#3A556A"/>
<path d="M77.2764 18.4233C76.6785 18.803 76.44 19.5309 76.7437 20.0501L77.2361 20.8921C77.5599 21.3986 78.2991 21.4876 78.8874 21.0909C79.4472 20.7131 79.6727 20.0265 79.403 19.5195L78.9106 18.6775C78.6068 18.1578 77.8752 18.044 77.2764 18.4233Z" fill="#3A556A"/>
<path d="M72.8122 21.1957C72.2143 21.5754 71.9759 22.3033 72.2795 22.8226L72.7717 23.6646C73.0956 24.171 73.8349 24.2601 74.4232 23.8634C74.983 23.4856 75.2084 22.7989 74.9386 22.2919L74.4463 21.4499C74.1422 20.9304 73.4107 20.8166 72.8122 21.1957Z" fill="#3A556A"/>
<path d="M68.3481 23.9684C67.7499 24.3482 67.5113 25.0764 67.8151 25.5959L68.3077 26.4383C68.6114 26.9575 69.3427 27.0712 69.941 26.6923C70.5394 26.3133 70.7783 25.5851 70.4746 25.0658L69.982 24.2235C69.6791 23.7037 68.9481 23.5892 68.3494 23.9676C68.3489 23.9679 68.3486 23.9681 68.3481 23.9684Z" fill="#3A556A"/>
<path d="M63.8837 26.7408C63.2855 27.1207 63.047 27.8489 63.3508 28.3684L63.8434 29.2107C64.147 29.73 64.8783 29.8437 65.4767 29.4647C66.075 29.0857 66.3139 28.3575 66.0103 27.8383L65.5177 26.9959C65.2148 26.4762 64.4838 26.3617 63.885 26.74C63.8845 26.7404 63.884 26.7407 63.8837 26.7408Z" fill="#3A556A"/>
<path d="M59.4191 29.5135C58.8209 29.8933 58.5824 30.6215 58.8862 31.141L59.3788 31.9833C59.6832 32.5021 60.4148 32.6146 61.0125 32.2352C61.6092 31.8563 61.8476 31.1297 61.5454 30.611L61.0528 29.7687C60.7492 29.2491 60.018 29.1348 59.4191 29.5135Z" fill="#3A556A"/>
<path d="M54.9545 32.2859C54.3563 32.6657 54.1178 33.3939 54.4216 33.9134L54.9142 34.7558C55.2186 35.2746 55.9502 35.3871 56.5479 35.0076C57.1446 34.6288 57.383 33.9021 57.0808 33.3835L56.5882 32.5411C56.2846 32.0215 55.5534 31.9072 54.9545 32.2859Z" fill="#3A556A"/>
<path d="M50.4903 35.0583C49.8921 35.4381 49.6535 36.1664 49.9573 36.6859L50.4499 37.5282C50.7543 38.047 51.486 38.1596 52.0837 37.7801C52.6804 37.4012 52.9188 36.6746 52.6165 36.156L52.1239 35.3137C51.8201 34.7942 51.0889 34.6798 50.4903 35.0583Z" fill="#3A556A"/>
<path d="M46.0245 37.8314C45.4261 38.2104 45.1872 38.9386 45.4909 39.4579L45.4915 39.459L45.9841 40.3013C46.2885 40.8201 47.0201 40.9327 47.6179 40.5532C48.2146 40.1743 48.453 39.4477 48.1507 38.929L47.6581 38.0867C47.3546 37.567 46.6233 37.4527 46.0245 37.8314Z" fill="#3A556A"/>
<path d="M41.5612 40.6032C40.9629 40.9822 40.724 41.7103 41.0276 42.2295L41.0283 42.2306L41.5209 43.0729C41.8253 43.5917 42.5569 43.7043 43.1546 43.3248C43.7514 42.946 43.9898 42.2193 43.6875 41.7007L43.1949 40.8584C42.8911 40.3389 42.1599 40.2247 41.5612 40.6032Z" fill="#3A556A"/>
</g>
<defs>
<clipPath id="clip0_4_2">
<rect width="114" height="73" fill="white"/>
</clipPath>
</defs>
</svg>
